# xmcd
#
# Track frame offsets: 
#        150
#        18127
#        39512
#        58766
#        77300
#        95436
#        113065
#        131249
#        154362
#        174105
#        192947
#        211918
#        232262
#        251930
#        270714
#        289781
#        310254
#        331272
#
# Disc length: 4440 seconds
#
# Revision: 0
# Processed by: cddbd v1.5.2PL0 Copyright (c) Steve Scherf et al.
# Submitted via: ExactAudioCopy v0.99pb5
#
DISCID=fb115612
DTITLE=Various Artist - Discoteca manelelor vol.3
DYEAR=1900
DGENRE=Manele
TTITLE0=Nek, Claudia si De Marco - Tot ce vrei
TTITLE1=Nicolae Guta - Asi veni unde te-ai afla
TTITLE2=Florin Peste, Denisa si Mr. Juve - Haide spune-odata da
TTITLE3=Nek, Claudia si De Marco - Le le le
TTITLE4=Denisa si Liviu Pustiu - Da-mi un pupic
TTITLE5=Nek, Claudia si De Marco - Nu te-am inselat
TTITLE6=Nek, Claudia si De Marco - o, baby
TTITLE7=Rukmini - De-ai sti ce inseamna fericirea
TTITLE8=Nicolae Guta si Susanu - Mie-mi plac multe femei
TTITLE9=Denisa - Iubeste-ma
TTITLE10=Nek, Claudia si De Marco - Numele tau
TTITLE11=Nicolae Guta si Play Aj - Beau, beau
TTITLE12=Florin Peste - Am gresit, iubire
TTITLE13=Costi Ionita si Florin Baboi - Vreau sa beau
TTITLE14=Adrian Minune - Cu frumusetea ta
TTITLE15=Nek, Claudia si De Marco - Vrei parai
TTITLE16=Liviu si Daniela - Sa-mi dai un telefon [rmx]
TTITLE17=Publicitate
EXTD=
EXTT0=
EXTT1=
EXTT2=
EXTT3=
EXTT4=
EXTT5=
EXTT6=
EXTT7=
EXTT8=
EXTT9=
EXTT10=
EXTT11=
EXTT12=
EXTT13=
EXTT14=
EXTT15=
EXTT16=
EXTT17=
PLAYORDER=
